<svg xmlns="http://www.w3.org/2000/svg" fill="currentColor" style="width:1em;height:1em;vertical-align:middle" overflow="hidden" viewBox="0 0 1024 1024"><path d="M723.134 443.381a21.113 21.113 0 0121.113 21.114v105.567a21.113 21.113 0 01-21.113 21.113H300.866a21.113 21.113 0 01-21.113-21.113V464.495a21.113 21.113 0 0121.113-21.114h422.268zm137.237 348.372a21.113 21.113 0 0121.114 21.113v105.567a21.113 21.113 0 01-21.114 21.113H163.63a21.113 21.113 0 01-21.114-21.113V812.866a21.113 21.113 0 0121.114-21.113h696.74zm95.01-696.743a21.113 21.113 0 0121.114 21.114V221.69a21.113 21.113 0 01-21.114 21.113H68.62a21.113 21.113 0 01-21.114-21.113V116.124A21.113 21.113 0 0168.62 95.01h886.76z"/></svg>