<svg xmlns="http://www.w3.org/2000/svg" fill="currentColor" style="width:1em;height:1em;vertical-align:middle" overflow="hidden" viewBox="0 0 1024 1024"><path d="M490.667 437.333A21.333 21.333 0 01512 458.667v106.666a21.333 21.333 0 01-21.333 21.334H64a21.333 21.333 0 01-21.333-21.334V458.667A21.333 21.333 0 0164 437.333h426.667zm277.333 352a21.333 21.333 0 0121.333 21.334v106.666A21.333 21.333 0 01768 938.667H64a21.333 21.333 0 01-21.333-21.334V810.667A21.333 21.333 0 0164 789.333h704zm192-704a21.333 21.333 0 0121.333 21.334v106.666A21.333 21.333 0 01960 234.667H64a21.333 21.333 0 01-21.333-21.334V106.667A21.333 21.333 0 0164 85.333h896z"/></svg>