<svg xmlns="http://www.w3.org/2000/svg" fill="currentColor" style="width:1em;height:1em;vertical-align:middle" overflow="hidden" viewBox="0 0 1024 1024"><path d="M730.144 462.014c72.355 50.567 119.67 134.492 119.67 229.45 0 154.508-125.244 279.752-279.752 279.752H237.526a21.113 21.113 0 01-21.114-21.113V63.34a21.113 21.113 0 0121.114-21.113h290.31c142.842 0 258.638 115.796 258.638 258.639a257.541 257.541 0 01-56.33 161.148zm-202.309 97.491H364.206v263.918h205.856c72.883 0 131.959-59.076 131.959-131.96s-59.076-131.958-131.96-131.958h-42.226zm0-147.794c61.218 0 110.845-49.627 110.845-110.845s-49.627-110.845-110.845-110.845H364.206v221.69h163.63z"/></svg>