<svg xmlns="http://www.w3.org/2000/svg" fill="currentColor" style="width:1em;height:1em;vertical-align:middle" overflow="hidden" viewBox="0 0 1024 1024"><path d="M362.667 10.667A21.333 21.333 0 01384 32v74.667h256V32a21.333 21.333 0 0121.333-21.333H768A21.333 21.333 0 01789.333 32v74.667h213.334A21.333 21.333 0 011024 128v864a21.333 21.333 0 01-21.333 21.333H21.333A21.333 21.333 0 010 992V128a21.333 21.333 0 0121.333-21.333h213.334V32A21.333 21.333 0 01256 10.667h106.667zm512 512H149.333V864h725.334V522.667zM234.667 256h-85.334v117.333h725.334V256h-85.334v53.333A21.333 21.333 0 01768 330.667H661.333A21.333 21.333 0 01640 309.333V256H384v53.333a21.333 21.333 0 01-21.333 21.334H256a21.333 21.333 0 01-21.333-21.334V256z"/></svg>