<svg xmlns="http://www.w3.org/2000/svg" fill="currentColor" style="width:1em;height:1em;vertical-align:middle" overflow="hidden" viewBox="0 0 1024 1024"><path d="M192 42.667h192V192h-86.4l162.048 162.048-105.6 105.6L192 297.589V384H42.667V64A21.333 21.333 0 0164 42.667h128zM981.333 832v128A21.333 21.333 0 01960 981.333H640V832h86.4L564.363 669.952l105.6-105.6L832 726.411V640h149.333v192zm0-640v192H832v-86.4L669.952 459.637l-105.6-105.6L726.411 192H640V42.667h320A21.333 21.333 0 01981.333 64v128zM42.667 832V640H192v86.4l162.048-162.048 105.6 105.6L297.589 832H384v149.333H64A21.333 21.333 0 0142.667 960V832z"/></svg>