<svg xmlns="http://www.w3.org/2000/svg" fill="currentColor" style="width:1em;height:1em;vertical-align:middle" overflow="hidden" viewBox="0 0 1024 1024"><path d="M918.805 426.667c10.966 0 19.862 9.546 19.862 21.333v106.667c0 11.786-8.896 21.333-19.862 21.333H382.528c-10.965 0-19.861-9.547-19.861-21.333V448c0-11.787 8.896-21.333 19.861-21.333h536.277zm-705.472 0A21.333 21.333 0 01234.667 448v106.667A21.333 21.333 0 01213.333 576H106.667a21.333 21.333 0 01-21.334-21.333V448a21.333 21.333 0 0121.334-21.333h106.666zm705.472 362.666c10.966 0 19.862 9.547 19.862 21.334v106.666c0 11.787-8.896 21.334-19.862 21.334H382.528c-10.965 0-19.861-9.547-19.861-21.334V810.667c0-11.787 8.896-21.334 19.861-21.334h536.277zm-705.472 0a21.333 21.333 0 0121.334 21.334v106.666a21.333 21.333 0 01-21.334 21.334H106.667a21.333 21.333 0 01-21.334-21.334V810.667a21.333 21.333 0 0121.334-21.334h106.666zm705.472-704c10.966 0 19.862 9.547 19.862 21.334v106.666c0 11.787-8.896 21.334-19.862 21.334H382.528c-10.965 0-19.861-9.547-19.861-21.334V106.667c0-11.787 8.896-21.334 19.861-21.334h536.277zm-705.472 0a21.333 21.333 0 0121.334 21.334v106.666a21.333 21.333 0 01-21.334 21.334H106.667a21.333 21.333 0 01-21.334-21.334V106.667a21.333 21.333 0 0121.334-21.334h106.666z"/></svg>