<svg xmlns="http://www.w3.org/2000/svg" fill="currentColor" style="width:1em;height:1em;vertical-align:middle" overflow="hidden" viewBox="0 0 1024 1024"><path d="M917.333 437.333a21.333 21.333 0 0121.334 21.334v106.666a21.333 21.333 0 01-21.334 21.334H106.667a21.333 21.333 0 01-21.334-21.334V458.667a21.333 21.333 0 0121.334-21.334h810.666zm0 352a21.333 21.333 0 0121.334 21.334v106.666a21.333 21.333 0 01-21.334 21.334H106.667a21.333 21.333 0 01-21.334-21.334V810.667a21.333 21.333 0 0121.334-21.334h810.666zm0-704a21.333 21.333 0 0121.334 21.334v106.666a21.333 21.333 0 01-21.334 21.334H106.667a21.333 21.333 0 01-21.334-21.334V106.667a21.333 21.333 0 0121.334-21.334h810.666z"/></svg>