<svg xmlns="http://www.w3.org/2000/svg" fill="currentColor" style="width:1em;height:1em;vertical-align:middle" overflow="hidden" viewBox="0 0 1024 1024"><path d="M906.667 522.773c65.28 2.795 117.333 56.598 117.333 122.56C1024 713.077 969.077 768 901.333 768h-8.778c-42.08 141.856-173.43 245.333-328.939 245.333H512A74.667 74.667 0 01512 864h51.627c106.986 0 193.706-86.72 193.706-193.707V427.84C757.333 278.827 646.315 160 512 160S266.667 278.827 266.667 427.84v113.461c.106.886.17 1.782.17 2.699v202.667A21.333 21.333 0 01245.504 768H122.667C54.923 768 0 713.077 0 645.333c0-65.962 52.053-119.765 117.333-122.56V427.84c0-229.312 175.52-417.173 394.667-417.173S906.667 198.528 906.667 427.84v94.933z"/></svg>