<svg xmlns="http://www.w3.org/2000/svg" fill="currentColor" style="width:1.001953125em;height:1em;vertical-align:middle" overflow="hidden" viewBox="0 0 1026 1024"><path d="M615.915 691.188l75.263 75.262-60.21 60.232a53.226 53.226 0 0073.612 76.87l1.66-1.598 60.221-60.23 75.273 75.272-60.21 60.231c-62.36 62.36-163.458 62.36-225.818 0-62.36-62.36-62.36-163.458 0-225.818l60.22-60.22zm-25.389-95.062L480.422 706.24c-73.846 73.857-90.666 183.141-50.437 273.126H63.872a21.29 21.29 0 01-21.29-21.29V681.298a85.162 85.162 0 0185.162-85.163h462.782zm386.701-40.431c62.36 62.36 62.36 163.458 0 225.819l-52.694 52.694-75.283-75.284 52.694-52.683a53.226 53.226 0 00-73.602-76.87l-1.66 1.597-52.695 52.694-75.273-75.273 52.695-52.694c62.36-62.36 163.458-62.36 225.818 0zM516.67 42.58c129.532 0 239.147 109.615 239.147 250.537 0 129.532-109.615 239.147-239.147 239.147-140.922 0-250.537-109.615-250.537-239.147 0-140.922 109.615-250.537 250.537-250.537z"/></svg>