<svg xmlns="http://www.w3.org/2000/svg" fill="currentColor" style="width:1em;height:1em;vertical-align:middle" overflow="hidden" viewBox="0 0 1024 1024"><path d="M532.32 597.333C462.741 638.037 416 713.557 416 800c0 73.056 33.376 138.304 85.696 181.333H42.666A21.333 21.333 0 0121.334 960V682.667a85.333 85.333 0 0185.334-85.334H532.32zm405.387 12.011l60.341 60.33a10.667 10.667 0 010 15.094L711.435 971.381a10.613 10.613 0 01-5.664 2.955l-1.248.15h-1.259a10.624 10.624 0 01-6.923-3.105l-158.389-158.4a10.667 10.667 0 010-15.082l60.341-60.342a10.667 10.667 0 0115.083 0l90.507 90.507 218.741-218.72a10.667 10.667 0 0115.083 0zM496.373 42.667C626.165 42.667 736 152.5 736 293.707c0 129.792-109.835 239.626-239.627 239.626-141.205 0-251.04-109.834-251.04-239.626 0-141.206 109.835-251.04 251.04-251.04z"/></svg>