<svg xmlns="http://www.w3.org/2000/svg" fill="currentColor" style="width:1em;height:1em;vertical-align:middle" overflow="hidden" viewBox="0 0 1024 1024"><path d="M773.952 512C909.387 512 1024 626.613 1024 773.952 1024 909.387 909.387 1024 773.952 1024 626.613 1024 512 909.387 512 773.952 512 626.613 626.613 512 773.952 512zm-313.877 85.323A350.41 350.41 0 00416 768c0 80.213 26.827 154.144 72 213.333H64A21.333 21.333 0 0142.667 960V682.667A85.333 85.333 0 01128 597.333l332.075-.01zm158.592 176.64c0 77.536 67.978 143.37 155.285 143.37 19.552 0 38.475-4.373 55.808-12.138L632.427 707.86c-8.875 19.851-13.76 42.187-13.76 66.091zm155.285-155.296c-23.904 0-46.24 4.885-66.101 13.76L905.184 829.76a136.267 136.267 0 0012.15-55.808c0-87.307-65.825-155.285-143.382-155.285zm-256.245-576c129.792 0 239.626 109.834 239.626 251.04 0 129.792-109.834 239.626-239.626 239.626-141.206 0-251.04-109.834-251.04-239.626 0-141.206 109.834-251.04 251.04-251.04z"/></svg>